<svg
  height="{25}"
  width="{25}"
  xmlns="http://www.w3.org/2000/svg"
  viewBox="0 0 512 512"
  class="fill-current stroke-current"
>
  <path
    d="M506.663 405.366a43.293 43.293 0 0 0-15.002-15.908L261.733 245.175V224.78c-.004-.702.333-1.336.836-1.784a76.118 76.118 0 0 0 7.98-1.135c6.559-1.299 15.178-3.688 23.833-9.272a92.96 92.96 0 0 0 30.597-32.787 92.317 92.317 0 0 0 11.582-44.859c.008-25.501-10.392-48.756-27.106-65.456a92.405 92.405 0 0 0-65.44-27.099c-19.108 0-37.013 5.83-51.765 15.812a92.892 92.892 0 0 0-33.508 40.708c-3.811 9.011.411 19.41 9.421 23.224 9.014 3.808 19.417-.403 23.225-9.413 4.322-10.228 11.59-18.984 20.712-25.144 9.13-6.158 20.026-9.742 31.914-9.742 15.815 0 29.984 6.36 40.376 16.73 10.362 10.384 16.718 24.553 16.722 40.38-.004 10.093-2.58 19.447-7.126 27.651a57.53 57.53 0 0 1-18.917 20.269c-3.054 2.038-7.6 3.531-11.274 4.217a42.106 42.106 0 0 1-4.449.62c-.522.052-.9.075-1.097.082h-.105l-2.404.03-2.359.702c-16.065 4.756-27.091 19.507-27.095 36.267v20.94L18.578 390.622l.004-.014A43.393 43.393 0 0 0 0 426.217c0 4.344.658 8.742 2.001 13.004 5.684 18.096 22.444 30.391 41.399 30.391h425.197c19.35 0 36.352-12.803 41.708-31.399v-.008A43.689 43.689 0 0 0 512 426.216c0-7.353-1.87-14.505-5.337-20.85zm-30.421 23.06v-.008a7.97 7.97 0 0 1-7.644 5.756H43.4a7.964 7.964 0 0 1-7.954-7.958c.007-2.553 1.224-5.017 3.4-6.525h.008L244.53 276.224l228.292 143.251a7.94 7.94 0 0 1 2.748 2.912 7.95 7.95 0 0 1 .989 3.83c0 .724-.105 1.448-.317 2.209z"
  />
</svg>
